<svg width="128" height="128" viewBox="0 0 128 128" fill="none" xmlns="http://www.w3.org/2000/svg">
  <rect width="128" height="128" rx="32" fill="#111827" />
  <path
    d="M36 86V42.5C36 39.4624 38.4624 37 41.5 37C44.5376 37 47 39.4624 47 42.5V63.2L62.422 45.5342C64.7368 42.8364 68.9733 42.6581 71.532 45.1708L81 54.2929V42.5C81 39.4624 83.4624 37 86.5 37C89.5376 37 92 39.4624 92 42.5V86C92 89.0376 89.5376 91.5 86.5 91.5C83.4624 91.5 81 89.0376 81 86V71.272L68.362 58.8981L53.332 76.1111C50.9366 78.8906 46.5827 78.9842 44.0719 76.3285L36 67.8893V86C36 89.0376 33.5376 91.5 30.5 91.5C27.4624 91.5 25 89.0376 25 86C25 86 25 86 25 86V86C25 86 25 86 25 86L25 86C25 86 25 86 25 86"
    fill="url(#paint0_linear)"
  />
  <defs>
    <linearGradient id="paint0_linear" x1="25" y1="37" x2="92" y2="92" gradientUnits="userSpaceOnUse">
      <stop stop-color="#38BDF8" />
      <stop offset="1" stop-color="#8B5CF6" />
    </linearGradient>
  </defs>
</svg>
